<svg version="1.1" viewBox="0.0 0.0 1500.0 1500.0" fill="none" stroke="none" stroke-linecap="square" stroke-miterlimit="10" xmlns:xlink="http://www.w3.org/1999/xlink" xmlns="http://www.w3.org/2000/svg"><clipPath id="p.0"><path d="m0 0l1500.0 0l0 1500.0l-1500.0 0l0 -1500.0z" clip-rule="nonzero"/></clipPath><g clip-path="url(#p.0)"><path fill="#000000" fill-opacity="0.0" d="m0 0l1500.0 0l0 1500.0l-1500.0 0z" fill-rule="evenodd"/><path fill="#c5060c" d="m149.02097 41.824623l0 796.6907l492.07565 0l0 -139.50256l-323.14603 0l0 -657.1881z" fill-rule="evenodd"/><path fill="#c5060c" d="m1117.9141 30.38105c-60.30603 0 -113.709595 9.990421 -160.21063 29.971264c-46.5011 19.980846 -85.55469 48.31731 -117.16089 85.009415c-31.606201 36.692093 -55.583313 80.10501 -71.931335 130.23877c-16.348022 50.13376 -24.522034 105.353546 -24.522034 165.65936c0 81.73984 12.715149 153.24698 38.145386 214.52158c25.430298 61.153503 64.54443 108.7442 117.34253 142.77222c52.91919 33.90686 120.43048 50.86035 202.53387 50.86035c42.504883 0 80.83191 -3.2090454 114.9812 -9.627136c34.14917 -6.296997 68.84326 -16.711243 104.0824 -31.242798l0 -141.68231c-38.145386 13.44165 -73.505615 23.79535 -106.08057 31.061096c-32.453857 7.265808 -64.84717 10.898682 -97.17993 10.898682c-46.5011 0 -84.46484 -10.414307 -113.891235 -31.242798c-29.426453 -20.949646 -51.16327 -51.28418 -65.21045 -91.00366c-13.926147 -39.840637 -20.88916 -87.91574 -20.88916 -144.22537c0 -41.778107 4.359436 -79.37842 13.07843 -112.800934c8.718933 -33.422485 21.494629 -61.940613 38.327026 -85.55434c16.953491 -23.613724 37.84265 -41.657013 62.66742 -54.12993c24.945923 -12.593964 53.585205 -18.890976 85.91797 -18.890976c29.063232 0 58.671265 5.267685 88.82434 15.80304c30.152954 10.535355 60.12439 22.887146 89.91406 37.055374l54.49353 -137.32288c-36.32898 -17.437828 -74.41382 -31.121685 -114.25464 -41.05155c-39.719604 -10.050976 -79.378784 -15.076454 -118.977295 -15.076454z" fill-rule="evenodd"/><path fill="#c5060c" d="m149.02315 938.3514l0 337.51715c0 58.283203 18.153793 105.10083 54.461365 140.453c36.307587 35.35205 89.09688 53.028076 158.3679 53.028076c48.728607 0 89.13669 -8.479736 121.224335 -25.439209c32.167206 -16.95935 56.17325 -39.930298 72.017975 -68.91272c15.924377 -29.062012 23.886536 -61.62732 23.886536 -97.696045l0 -338.95026l-110.7142 0l0 319.9605c0 26.991821 -3.5829773 49.2063 -10.748932 66.64343c-7.165985 17.437256 -18.352875 30.335938 -33.56064 38.69629c-15.128174 8.360352 -34.87439 12.540405 -59.238678 12.540405c-34.635498 0 -60.79129 -8.718506 -78.46735 -26.155762c-17.676056 -17.437134 -26.5141 -47.77307 -26.5141 -91.00781l0 -320.67706z" fill-rule="evenodd"/><path fill="#c5060c" d="m641.3252 938.3514l133.64532 523.83234l126.12109 0l70.58478 -274.45667c1.4331665 -5.732788 3.3441162 -14.093018 5.732788 -25.080933c2.3886108 -10.987793 4.8170776 -22.811646 7.2854004 -35.471436c2.5478516 -12.659912 4.8170776 -24.603271 6.807678 -35.829956c2.0701294 -11.226685 3.463501 -20.184082 4.1801147 -26.872314c0.71661377 6.6882324 2.0701904 15.725342 4.06073 27.111206c2.0701294 11.3063965 4.4190063 23.369019 7.046509 36.188232c2.6275635 12.739502 5.13562 24.483643 7.524292 35.232666c2.3886719 10.748901 4.2995605 18.750854 5.732788 24.005981l70.943054 275.17322l126.47937 0l133.28699 -523.83234l-109.281006 0l-66.64343 285.92218c-2.6275635 11.465454 -5.692993 25.677979 -9.196411 42.63745c-3.423706 16.959473 -6.6484375 33.998535 -9.674072 51.11731c-2.9459229 17.039062 -5.255005 31.530273 -6.927124 43.47351c-0.95544434 -8.838013 -2.4682617 -19.268555 -4.53833 -31.291382c-1.9906006 -12.102539 -4.180176 -24.483765 -6.5688477 -37.143677c-2.3886719 -12.65979 -4.737549 -24.404053 -7.046509 -35.232666c-2.2294922 -10.908203 -4.180176 -19.586914 -5.852295 -26.036377l-76.317505 -293.44635l-104.981445 0l-76.317566 293.44635c-1.9109497 6.6882324 -4.06073 15.40686 -6.449402 26.155884c-2.3886719 10.748901 -4.737488 22.413452 -7.046509 34.993774c-2.2294312 12.50061 -4.2996216 24.802246 -6.2105103 36.904785c-1.9109497 12.022827 -3.463562 22.572754 -4.657898 31.649658c-0.95544434 -8.838013 -2.4682617 -19.268555 -4.538452 -31.291382c-1.9905396 -12.102539 -4.2597656 -24.643066 -6.807678 -37.621338c-2.4682617 -13.057983 -4.9763794 -25.558594 -7.524231 -37.501953c-2.4683228 -11.943237 -4.657898 -22.214478 -6.5688477 -30.813599l-67.00177 -285.92218z" fill-rule="evenodd"/></g></svg>